<?xml version="1.0" standalone="no"?>
<!DOCTYPE svg PUBLIC "-//W3C//DTD SVG 20010904//EN"
 "http://www.w3.org/TR/2001/REC-SVG-20010904/DTD/svg10.dtd">
<svg version="1.0" xmlns="http://www.w3.org/2000/svg"
 width="834.000000pt" height="834.000000pt" viewBox="0 0 834.000000 834.000000"
 preserveAspectRatio="xMidYMid meet">

<g transform="translate(0.000000,834.000000) scale(0.100000,-0.100000)"
fill="#000000" stroke="none">
<path d="M2475 5193 c-57 -21 -117 -63 -146 -104 -11 -16 -92 -153 -179 -306
l-159 -278 72 -73 c66 -66 73 -71 85 -55 7 10 87 147 178 305 91 159 178 297
192 309 59 47 168 -5 192 -91 13 -48 12 -138 -4 -235 -13 -74 -12 -86 7 -155
27 -99 30 -349 5 -422 -9 -27 -12 -45 -7 -42 22 13 71 132 94 227 36 149 95
508 95 575 -1 162 -71 284 -195 337 -61 26 -170 29 -230 8z m203 -77 c93 -48
142 -175 119 -301 l-12 -60 -5 95 c-5 80 -11 104 -36 150 -52 96 -127 123
-224 79 -65 -29 -106 -64 -145 -122 -41 -60 -45 -56 -11 11 64 124 219 197
314 148z"/>
<path d="M1696 4576 l-29 -115 28 -43 c112 -169 233 -294 335 -346 102 -51
257 -76 330 -52 25 8 24 8 -5 9 -118 4 -252 144 -613 640 -17 23 -17 22 -46
-93z"/>
<path d="M1130 4331 l-35 -7 35 -8 c122 -29 247 -156 505 -513 l110 -152 27
102 c15 56 27 110 27 120 1 17 -61 117 -91 148 -8 8 -31 38 -51 66 -50 69
-135 144 -206 181 -91 49 -242 78 -321 63z"/>
<path d="M730 4258 c-38 -67 -54 -117 -90 -299 -42 -206 -70 -393 -70 -470 0
-142 64 -259 174 -317 45 -24 62 -27 146 -27 87 0 100 3 149 30 29 16 67 46
85 66 36 43 349 586 344 599 -2 4 -33 40 -70 79 l-67 70 -48 -82 c-27 -45
-109 -186 -182 -314 -115 -198 -139 -235 -169 -249 -31 -15 -37 -15 -77 0 -23
9 -50 25 -58 34 -47 52 -59 163 -33 311 12 67 11 81 -7 145 -29 108 -34 310
-9 404 10 39 17 72 15 72 -1 0 -16 -24 -33 -52z m-43 -745 c0 -135 57 -240
142 -263 80 -21 192 38 263 140 47 66 49 55 5 -25 -59 -105 -183 -170 -275
-145 -57 15 -96 51 -128 118 -20 41 -27 74 -28 117 -1 54 10 135 18 135 2 0 3
-35 3 -77z"/>
</g>
</svg>
